# xmcd CD database file
#
# Track frame offsets:
#	150
#	16570
#	36575
#	59665
#	70370
#	97710
#	118210
#	136530
#	151708
#	174318
#	194033
#	204528
#	219245
#	235088
#	251275
#	269138
#	278293
#
# Disc length: 3877 seconds
#
# Revision: 8
# Processed by: cddbd v1.5.1PL0 Copyright (c) Steve Scherf et al.
# Submitted via: CDex 1.51
#
DISCID=e80f2311
DTITLE=Various Artist - The Millennium Hits on TV
DYEAR=2000
DGENRE=Soundtrack
TTITLE0=Full Moon/Time To Go
TTITLE1=Nana Mouskouri/Only Love
TTITLE2=Sissel featuring Zamfir/Summer Snow
TTITLE3=Jane Birkin/L'aquoiboniste
TTITLE4=10cc/I'm Not In Love
TTITLE5=The Cranberries/Dreams
TTITLE6=Elton John/Your Song
TTITLE7=Orleans/Dance With Me
TTITLE8=Sissel featuring Zamfir/Seven Angels
TTITLE9=Michel Polnareff/Love Me, Please Love Me
TTITLE10=Louis Armstrong/What A Wonderful World
TTITLE11=Elton John/Goodbye Yellow Brick Road
TTITLE12=10cc/The Things We Do For Love
TTITLE13=Three Dog Night/Joy To The World
TTITLE14=Pandra/This Could Be Heaven
TTITLE15=Tom Jones/It's Not Unusual
TTITLE16=Diana Ross and The Supremes/You Can't Hurry Love
EXTD=YEAR: 2000
EXTT0=
EXTT1=
EXTT2=
EXTT3=
EXTT4=
EXTT5=
EXTT6=
EXTT7=
EXTT8=
EXTT9=
EXTT10=
EXTT11=
EXTT12=
EXTT13=
EXTT14=
EXTT15=
EXTT16=
PLAYORDER=
